<?xml version="1.0" standalone="no"?>
<!DOCTYPE svg PUBLIC "-//W3C//DTD SVG 20010904//EN"
 "http://www.w3.org/TR/2001/REC-SVG-20010904/DTD/svg10.dtd">
<svg version="1.0" xmlns="http://www.w3.org/2000/svg"
 width="842.000000pt" height="842.000000pt" viewBox="0 0 842.000000 842.000000"
 preserveAspectRatio="xMidYMid meet">
<metadata>
Created by potrace 1.11, written by Peter Selinger 2001-2013
</metadata>
<g transform="translate(0.000000,842.000000) scale(0.100000,-0.100000)"
fill="#000000" stroke="none">
<path d="M5586 7103 c-1 -1 -34 -5 -74 -8 -40 -3 -103 -12 -140 -20 -37 -7
-79 -16 -92 -19 -93 -18 -278 -97 -393 -168 -107 -65 -180 -123 -273 -215 -70
-70 -194 -221 -194 -238 0 -3 -11 -21 -25 -39 -29 -38 -120 -228 -131 -272 -4
-16 -11 -35 -17 -41 -5 -7 -7 -13 -4 -13 4 0 0 -18 -8 -39 -7 -22 -16 -56 -19
-76 -4 -21 -8 -41 -11 -44 -18 -30 -27 -367 -13 -479 26 -193 116 -434 224
-596 21 -32 44 -66 49 -74 43 -66 213 -236 300 -301 39 -28 79 -58 90 -67 36
-27 259 -133 323 -154 81 -25 128 -38 172 -45 19 -3 42 -8 50 -10 77 -23 460
-26 460 -4 0 5 6 6 13 3 28 -10 245 48 347 93 107 48 273 141 290 162 3 3 28
23 55 44 48 36 184 170 235 232 23 27 86 119 117 170 17 26 86 169 106 220 29
69 62 192 83 303 22 118 19 331 -6 472 -6 30 -13 69 -16 85 -21 117 -115 336
-200 468 -90 139 -237 295 -354 377 -19 13 -37 27 -40 30 -10 12 -137 86 -191
112 -84 41 -174 76 -239 93 -44 12 -139 34 -170 39 -72 12 -296 26 -304 19z
m220 -647 c17 -3 43 -10 57 -15 15 -6 27 -9 27 -6 0 10 151 -60 210 -97 87
-56 216 -188 266 -274 115 -198 149 -422 94 -636 -21 -83 -96 -248 -112 -248
-4 0 -8 -7 -8 -15 0 -14 -147 -169 -199 -209 -65 -50 -218 -118 -321 -142 -58
-14 -286 -13 -335 1 -27 8 -63 17 -80 20 -16 3 -71 26 -120 50 -128 64 -217
138 -305 255 -244 323 -213 781 73 1074 68 70 206 169 234 169 7 0 13 3 13 7
0 6 90 41 120 47 8 1 42 9 75 17 57 13 236 14 311 2z"/>
<path d="M2277 6584 c-1 -1 -35 -5 -76 -8 -41 -4 -82 -11 -90 -16 -9 -4 -20
-8 -26 -9 -32 -3 -81 -15 -90 -21 -5 -3 -32 -15 -60 -25 -47 -17 -174 -88
-211 -117 -9 -7 -58 -53 -109 -103 -170 -168 -264 -362 -290 -605 -4 -30 -6
-593 -5 -1250 1 -657 1 -1204 1 -1215 -5 -834 -1 -1038 20 -1120 6 -22 13 -51
16 -64 2 -14 7 -29 11 -35 3 -6 7 -17 8 -24 5 -28 73 -162 118 -229 86 -131
252 -274 395 -341 31 -14 58 -26 61 -27 3 0 10 -3 15 -6 6 -4 24 -10 40 -14
45 -12 45 -12 48 -15 6 -5 93 -21 157 -29 70 -9 3504 -6 3545 3 83 18 163 39
190 51 180 77 256 127 372 244 157 157 258 375 279 601 9 97 9 1687 0 1723 -4
17 -17 32 -32 37 -21 9 -46 1 -149 -44 -179 -79 -362 -132 -526 -152 -112 -13
-143 -49 -146 -169 -1 -45 -3 -86 -4 -91 -1 -5 -1 -13 0 -19 2 -11 2 -20 1
-510 0 -198 0 -364 0 -370 4 -47 1 -216 -4 -224 -4 -5 -3 -12 2 -15 5 -3 5
-32 1 -64 -8 -68 -36 -114 -82 -133 -24 -10 -202 -13 -786 -14 -416 0 -763 1
-771 3 -13 3 -15 101 -13 820 0 449 1 820 2 824 1 3 83 6 184 7 100 1 191 1
202 1 11 0 134 0 274 -1 210 -1 256 2 268 14 13 13 11 17 -15 36 -17 11 -35
21 -42 21 -14 0 -167 74 -277 134 l-82 45 -253 1 c-138 0 -254 3 -257 6 -3 2
-5 118 -6 257 -1 280 5 254 -80 402 -19 33 -53 103 -76 155 -23 52 -48 102
-56 110 -35 37 -38 0 -38 -474 l0 -456 -827 0 -827 0 0 767 c0 824 -1 810 51
853 13 11 39 22 57 26 19 4 343 7 720 8 574 1 689 3 707 15 30 20 54 64 59
108 23 183 91 423 164 575 43 90 46 123 14 150 -12 10 -189 13 -845 13 -456 0
-830 -1 -831 -1z m896 -2765 c703 2 649 2 656 -5 11 -10 7 -1644 -4 -1647 -5
-2 -354 -3 -775 -2 -717 1 -767 2 -795 19 -16 10 -39 30 -50 44 -20 26 -20 44
-22 808 l-2 782 179 -1 c99 0 183 3 187 6 3 4 10 4 15 1 5 -4 280 -6 611 -5z"/>
</g>
</svg>
